<svg width="13" height="13" viewBox="0 0 13 13" fill="none" xmlns="http://www.w3.org/2000/svg">
<path d="M3.07161 4.61335H0.468042V12.2379H3.07161V4.61335Z" fill="#9893A3"/>
<path d="M2.6339 1.05515C2.38577 0.904897 2.09416 0.824712 1.79586 0.824707C1.59682 0.824704 1.39975 0.860413 1.21597 0.929781C1.03219 0.999148 0.865338 1.10081 0.725001 1.22891C0.584664 1.35701 0.473615 1.50902 0.398239 1.67621C0.322863 1.84341 0.284648 2.02247 0.285792 2.20311C0.287506 2.47384 0.377525 2.73804 0.544493 2.96238C0.71146 3.18672 0.947896 3.36116 1.22397 3.46369C1.50005 3.56621 1.8034 3.59223 2.09575 3.53846C2.3881 3.4847 2.65636 3.35355 2.86667 3.16157C3.07699 2.96958 3.21996 2.72537 3.27752 2.45973C3.33509 2.19409 3.30468 1.91893 3.19014 1.66895C3.07559 1.41898 2.88204 1.2054 2.6339 1.05515Z" fill="#9893A3"/>
<path d="M7.25084 4.61297H4.74273L4.73405 12.2533H7.33762V8.48038C7.33762 7.48793 7.54591 6.52698 8.89977 6.52698C10.2536 6.52698 10.2536 7.66909 10.2536 8.55127V12.2375H12.8572V8.05505C12.8572 5.99925 12.3278 4.42393 9.72423 4.42393C9.22801 4.4063 8.73582 4.5113 8.30021 4.7277C7.8646 4.94411 7.5019 5.26381 7.25084 5.65268V4.61297Z" fill="#9893A3"/>
</svg>
