<svg width="17" height="13" viewBox="0 0 17 13" fill="none" xmlns="http://www.w3.org/2000/svg">
<path d="M16.2415 1.72872C15.8094 2.37137 15.2794 2.9192 14.6513 3.37221C14.6575 3.49371 14.6606 3.63103 14.6606 3.78417C14.6606 4.63508 14.5365 5.48702 14.2884 6.33998C14.0403 7.19295 13.6613 8.0094 13.1514 8.78932C12.6415 9.56923 12.0342 10.2602 11.3293 10.8621C10.6245 11.4641 9.77723 11.9441 8.78757 12.302C7.7979 12.66 6.73724 12.839 5.6056 12.839C3.83947 12.839 2.21305 12.3622 0.726318 11.4086C0.990195 11.438 1.24327 11.4527 1.48556 11.4527C2.96101 11.4527 4.27883 10.9982 5.43901 10.0893C4.75107 10.0767 4.13497 9.86494 3.5907 9.45401C3.04644 9.04309 2.67189 8.518 2.46705 7.87876C2.66952 7.91733 2.86935 7.93661 3.06654 7.93661C3.35038 7.93661 3.62967 7.89959 3.90442 7.82555C3.17026 7.67852 2.56121 7.31286 2.07728 6.72857C1.59336 6.1443 1.3514 5.46993 1.3514 4.70548V4.66608C1.80203 4.91559 2.2827 5.04831 2.7934 5.06424C2.35849 4.7743 2.01367 4.39621 1.75895 3.92997C1.5042 3.46372 1.37683 2.95917 1.37683 2.4163C1.37683 1.84376 1.5203 1.31061 1.80724 0.816858C2.60563 1.7966 3.57304 2.57965 4.70947 3.16599C5.84593 3.75234 7.06512 4.07798 8.36706 4.14291C8.31153 3.91149 8.28372 3.66999 8.28362 3.41842C8.28362 2.54001 8.59447 1.78998 9.21618 1.16832C9.83789 0.546667 10.5879 0.23584 11.4664 0.23584C12.386 0.23584 13.1607 0.57071 13.7903 1.24045C14.5097 1.09796 15.1832 0.840229 15.811 0.467259C15.5691 1.22841 15.1031 1.81558 14.4129 2.22878C15.0473 2.15339 15.6568 1.98671 16.2414 1.72872H16.2415Z" fill="#9893A3"/>
</svg>
